<svg xmlns="http://www.w3.org/2000/svg" width="805.8" height="480.2"><path d="M69 410.3h-.9v.9h.9v-.9zm41-291.6h-1.8v-.9h-.9v.9h-.9v.9h-1.8v.9H103v.9h-1.8v.9h-2.7v.9h-.9v.9h-.9v.9h-1.6v.9h-.9v.9h-.9v.9h-1.8v.9h-.9v.9h-.9v.9h-1.6v1.7h-.9v1.7h-.9v.9h-.9v1.7h-.9v1.7h-.9v.9h-.9v1.7h-.9v.9h-.9v.9H80v.9h-.9v.9h-.9v.9h-1.8v.9H76v.9h-.9v.9h-.9v.9h-.9v1.7h-.9v1.7h-.9v.9h-.9v1.7h-.9v1.7H69v.9h-.9v2.6h-.9v1.7h-.9v1.7h-.9v1.7h-.9v1.7h-.9v1.7h-.9v1.7H62v1.7h-.9v1.7h-.9v1.7h-.9v.9h-.9v2.6h-.9v2.6h-.9v1.7h-.9v2.6H55v2.6h-.9v1.7h-.9v2.6h-.9v2.6h-.9v1.7h-.9v2.6h-.9v2.6h-.9v1.7H48v2.6h-.9v1.7h-.9v3.5h-.9v3.5h-.9v3.5h-.9v3.5h-.9v3.5h-.9v17.5h3.6v-.9h.9v-.9h.9v-.3h.9v-.9h1.8v-.9h.9v-.9h.9v-.9h.9v-.9h.9v-.9h.9v-.9h.7v-.7h.9v-.9h.9v-.9h.9v-.9h.9v-.9h.9v-.9h.9v-.9h.9v-.9h.7v-.7h.9v-1.7h.9v-.9h.9v-.9h.9v-1.7h.9v-.9h.9v-.9h.9v-1.7h.7v-.9h.9v-.9h.9v-1.7h.9v-.9h.9v-.9h.9v-1.7h.9v-.9h.9v-.9h.7v-1.7h.9v-.9h.9v-.9h.9v-1.7h.9v-.9h.9v-1.7h.9V200h.9v-1.7h.9v-1.7h.9v-1.7h.9v-.9h.9v-1.7h.9v-1.7h.9v-1.7h.9v-1.7h.4v-1.7h.9v-.9h.9v-1.7h.9v-1.7h.9V179h.9v-1.7h.9v-1.7h.9V173h.7v-2.6h.9v-2.6h.9V165h.9v-1.7h.9v-2.6h.9V159h.9v-2.6h.9v-2.6h.9V151h.9v-2.6h.9v-2.6h.9v-3.5h.9v-4.4h.9v-4.4h.9v-5.2h.9V124h.9v-5.3zm8.7 197.3h.9v1.7h-.9v.9h-.9v1.7h-.8v1.7h-.9v1.7h-.9v.9h-.9v1.7h-.9v.9h-.9v.9h-.9v.9h-.9v.9h-.7v.9h-.9v1.7h-.9v.9h-.9v.9h-.9v.9h-.9v.9h-.9v.9h-.9v-2.6h.9v-3.5h.9v-1.7h.9v-.9h.9v-1.7h.9v-.9h.9V324h.9v-1.7h.9v-1.7h.9v-1.7h.9v-1.7h.9v-1.7h1.8v-.9h.9v-.9h.9v2.6h1.5zm.9-.8h.9v.9h-.9v-.9zm7-10.5h.9v2.6h-1.8v-2.6h.9zm41-110.9h.9v.9h-2.7v-.9h1.8zm6.1 4.4H172v.9h-1.8v6.1h.9v-1.7h.9v-1.7h.9v-1.7h.9v-1.9zm4.4 3.5h-1.8v.9h-1.8v1.7h-.9v1.7h-.9v4.4h.9v-.9h.9v-.9h.9v-.9h.9V206h.9v-2.6h.9v-1.7zm6.1 9.6h.9v.9h-.9v-.9zm1.8 7.8h.9v.9h-.9v-.9zm22.7-89.9h-.9v.9h.9v-.9zm11.3-34h-.9v1.7h-.9v1.7h-.9v.9h-.9v1.7h.9v3.5h-.9v1.7h-.9v1.7h-.9v2.6h-.9v1.7h-.7v1.7h-.9v1.7h-.9v3.5h-.9v3.5h-.9v2.6h-.9v2.6h.9v-1.7h.9v-1.7h.9v-1.7h.9v-1.7h.9v-1.7h.9v-1.7h.9v-1.7h.9v-2.6h.9v-2.6h.9v-2.6h.9v-2.6h.9V103h.9v-7.8zm13.1 7.8h.9v2.6h-.9V103zm4.4-27.9h.9v10.5h-.9v7.9h-.9V97h-.9v2.6h-.9v3.5h-.8v-5.2h.9v-6.1h.9v-5.2h.9v-8.7h-.9V77h-.9v-1.7h-.9v-1.7h2.7v-.9h.9v2.4zm174.6 35.8h.9v2.6h-.9v.9h-1.8v-3.5h1.8zM440 394.6h-.9v1.7h.9v-1.7zm41-179h-.9v-.9h-.9v-.9h-.9v-.8h-.9v-.9h-.9v-.9h-.9v-.9h-.9v-1.7h-4.5v.9h-.9v.9H468v1.7h-.9v.9h-.9v.9h-.9v.9h-.9v.9h-.9v2.6h-.9v1.7h-.9v1.7h-.7v1.7h-.9v1.7h-.9v1.7h-.9v1.7h-.9v1.7h-.9v1.7h-.9v1.7h-.9v1.7h-.7v1.7h-.9v1.7h-.9v2.6h-.9v2.6h-.9v1.7h-.9v2.6h-.9v1.7h-.9v2.6h-.7v1.7h-.9v2.6h-.9v1.7h-.9v2.6h-.9v1.7h-.9v3.5h-.9v2.6h-.9v2.6h-.7v2.6h-.9v3.5h-.9v2.6h-.9v2.6h-.9v2.6h-.9v2.6h-.9v3.5h-.9v3.5h-.7v2.6h-.9v3.5h-.9v3.5h-.9v2.6h-.9v3.5h-.9v2.6h-.9v3.5h-.9v3.5h-.7v3.5h-.9v3.5h-.9v3.5h-.9v3.5h-.9v3.5h-.9v2.6h-.9v4.4h-.9v4.4h-.9v4.4h-.9v13.1h.9v-.9h.9v-.9h.9v-.9h.9v-.9h.9v-.9h.9v-.9h.9v-.9h.9v-1.7h.9v-.9h.9v-.9h.9v-1.7h.9v-.9h.9v-.9h.9v-1.7h.9v-.9h.9v-1.7h.9v-1.7h.9v-1.7h.9V344h.9v-1.7h.9v-1.7h.9v-1.7h.9v-1.7h.9v-1.7h.9v-1.7h.9v-1.7h.9V330h.9v-.9h.9v-1.7h.9v-1.7h.9v-.9h.9V323h.9v-1.7h.9v-.9h.9v-1.7h.9V317h.9v-1.7h.9v-2.6h.9v-2.6h.9v-2.6h.9v-2.6h.9v-2.6h.9v-1.7h.9V298h.9v-2.6h.9v-2.6h.9v-1.7h.9v-2.6h.9v-2.6h.9v-2.6h.9v-1.7h.9V279h.9v-2.6h.9v-2.6h.9v-.9h.9v-.9h.9v-.9h.9V268h.9v-2.6h.9v-3.5h.9v-2.6h.9v-3.5h.9v-2.6h.9v-3.5h.9v-2.6h.9v-3.5h.9v-4.4h.9v-4.4h.9v-4.4h.9V226h.9v-4.4h.9v-6zM688 44.5h.9v8.7h-.9v3.5h-.9V62h-.9v3.5h-.9v2.6h-.9v1.7h-.9v.9h-.9v.9h-.9v.9h-.7v-1.7h-.9v1.7h-.9v.9h-.9v.9h-.9V76h-.9v.9h-.9v.9h-.9v.9h-.7v1.7h-.9v.9h-.9V83h-.9v.9h-.9v1.7h-.9v.9h-.9v.9H667v.9h-3.6v.9h-.9v.9h-.9v.9H660v.9h-1.8v.9H653v-.9h-1.8v.9h-1.8v.9h-7.2v.9h-3.6v.9H635v-1.7h-.9v-1.7h-.9v-2.6h-.2v-1.7h-.9v-2.6h-.9V80h-.9v-5.2h-1.8v-.9h-.9V73h-.9v-.9h-.7V69h.9v-3.5h-.9v-5.2h-3.6v-1.7h1.8v-.9h.9v-.9h.9v-.9h.9V55h.9v-1.7h.9v-.9h.9v-.9h.9v-.9h.9v-1.7h.9V48h.9v-.9h.9v-.9h.9v-1.7h.9v-.9h.9v-1.7h.9v-1.7h.9v-1.7h.9v-1.7h.9v-1.7h.9v-1.7h.9v-1.7h.9V30h.9v-1.7h.9v-1.7h.9v-1.7h.9v-1.7h.9V21h.9v-1.7h.9v-1.7h.9V15h.9v-1.7h.9v-1.7h.9v-2h.9V7.9h.9V6.1h.9V4.4h.9V2.6h.9V0h.9v.9h3.6v.9h.9v.9h1.8v.9h4.5v-1h1.8v-.9h.9v7h.9v1.7h.9v1.7h.9V14h.9v.9h.9v1.7h.9v1.7h.9v.9h.9V21h.9v1.7h.9v.9h.9v1.7h.9v.9h.9v4.4h.9v.9h.9v.9h.9V34h.9v.9h.9V41h.9v1.7h.9v1.8zm39.2 137.1h-.9v.9h-.9v.9h-1.8v.9h-.9v.9h-1.6v.9h-.9v.9h-1.8v.9h-.9v.9h-.9v.9h-.9v.9h-.7v.9h-.9v.9h-.9v.9h-.9v.9h-1.8v.9h-.9v.9h-.9v.9h-.7v.9h-.9v.9h-1.8v.9h-.9v.9h-.9v.9h-.9v.9h-.9v.9h-1.8v.9h-.9v.9h-.9v.9h-.9v.9h-.9v.9h-1.8v.9h-.9v.9h-.9v.9h-.9v.9h-.9v.9h-1.8v1.7h-.9v.9h-.2v.9h-.9v.9h-.9v.9h-.9v.9h-.9v.9h-.9v.9h-.9v.9h-.9v.9h-.7v1.7h-.9v.9h-.9v.9h-.9v.9h-.9v.9h-.9v.9h-.9v.9h-.9v.9h-.7v.9h-.9v.9h-.9v.9h-.9v1.7h-.9v.9h-.9v.9h-.9v1.7h-.9v.9h-.7v.9h-.9v1.7h-.9v.9h-.9v.9h-.9v1.7h-.9v.9h-.9v.9h-.9v1.7h-.7v.9h-.9v.9h-.9v1.7h-.9v.9h-.9v.9h-.9v.9h-.9v1.7h-.9v.9h-.7v1.7h-.9v.9h-.9v1.7h-.9v.9h-.9v1.7h-.9v.9h-.9v1.7h-.9v.9h-.9v1.7h-.9v.9h-.9v1.7h-.9v.9h-.9v1.7h-.9v.9h-.9v.9h-.9v2.6h-.9v2.6h-.9v2.6h-.9v1.7h3.6v-.9h.9v-.9h1.8v-2h.9v-.9h1.8v-.9h.9v-.9h1.8v-.9h.9v-.9h1.8v-.9h.9v-.9h1.8v-.7h.9v-.9h1.8v-.9h.9v-.9h.9v-.9h1.8v-.9h.9v-.9h.9v-.9h.9v-.7h.9v-.9h.9v-.9h.9v-.9h.9v-.9h.9v-.9h1.8v-.9h.9v-.9h.9v-.7h.9v-.9h.9v-.9h.9v-.9h.9v-.9h.9v-.9h.9v-.9h.9v-.9h.9v-.9h.9v-.9h.9v-.9h.9v-.9h.9v-.9h.9v-.9h.9v-.9h.9v-.9h.9v-.9h.9v-.9h.9v-.9h.9v-.9h.9v-.9h.9v-.9h.9v-.9h.9v-.2h.9v-.9h.9v-.9h.9v-1.7h.9v-.9h.9v-.9h.9v-.9h.9v-.8h.9v-.9h.9v-1.7h.9v-.9h.9v-.9h.9v-.9h.9v-.9h.9v-.8h.9v-1.7h.9v-.9h.9v-.9h.9v-.9h.9v-.9h.9v-.9h.9v-1.7h.9v-.9h.9v-1.7h.9v-1.7h.9V213h.9v-.9h.9v-1.7h.9v-1.7h.9V207h.9v-1h.9v-1.7h.9v-1.7h.9v-1.7h.9v-.9h.9v-1.7h.9v-1.7h.9v-1.7h.9v-1.7h.9v-1.7h.9V188h.9v-3.5h.9v-2.9zm37.6 108.3H763v.9h-1.8v.9h2.7v-.9h.9v-.9zm40.1-25.4h.9v2.6h-.9v1.7h-.9v1.7h-.9v1.7h-.9v1.7h-.9v1.7h-.9v.9h-.9v.9h-.9v.9h-.6v.9h-.9v.9h-.9v.9h-.9v.9h-.9v.9h-.9v.9h-.9v.9H791v.9h-.9v.9h-1.8v.9h-1.8v.9h-.9v.9H784v.9h-.9v.9h-1.8v.9h-1.8v.9h-.9v.9H777v.9h-5.4v-.9h.9v-.9h.9V291h-.9v-.9h-.9v1.7h-.9v.9h-1.6v.9h-2.7v.9H763v.9h-1.8v.9h-1.8v.9h-2.7V296h-.9v-.9h-.9v-.9h-2.7v-.9h-2.7v-.9h-.9v2.6h1.8v2.6h-.9v.9h-.9v-.9h-.9v-.9h-.9v-.7h-.9v.9h-4.7v-.9h-.9v-.9h-.9v-1.7h-1.7v-.9H736v-.9h-1.8v-.9h-2.6v-.9H729v-.8h-2.7v-.9h-1.8v-.9h-1.8v-.9h-1.6v-.9h-1.8v-.9h-1.8v-.9h-1.8v-.9h-.7v-.7h-.9v-.9h-.9v-.9h-.9v-.9h-.9v-1.7h-.9v-.9h-.9V275h-.9v-3.5h-.7V268h-.9v-1.7h-.9v-2.6h-.9V261h-.9v1.7h-.9v.9h-.9v.9h-.9v.9h-.9v.9h-.9v.9h-.9v1.7h-.9v.9h-.9v.9h-.9v.9h-.9v.9h-.9v.9h-.9v.9h-.9v.9h-.9v.9h-.9v.9h-.9v.9h-.9v.9h-.9v.9h-.2v.9h-.9v.9h-.9v.9h-.9v.9h-.9v.9h-.9v.9h-.9v.9h-.9v.9h-.7v.9h-.9v.9h-.9v.9h-.9v.9h-.9v.9h-1.8v.9h-.9v.9h-.7v.9h-.9v.9h-1.8v.9h-.9v.9h-.9v.9h-.9v.9H667v.9h-.9v.9h-1.8v.9h-.9v.9h-1.8v.9h-.9v.9h-1.6v.9h-.9v.9h-1.8v.9h-.9v.9h-1.8v.9h-1.6v1.7h-.9v1.7h-.9v.9h-.9v1.7h-.9v.9h-.9v.9h-.9v.9h-1.8v.9h-1.8v.9h-1.8v.9h-1.8v.9h-6.3v-.9h-1.1v-.9h-1.8v-.9h-.9V316h-1.8v-.9h-.9v-.9h-.7v-.9h-1.8v-.9h-.9v-.9h-1.8v-.9h-.9v-.9h-.9v-.9h-1.6v-.9h-1.8v-.9h-3.6v-.9h-1.6v-.9h-1.8v-.9h-.9v-.9h-.9v-.9h-.9v-.9h-.9v-.9h-.7V299h-.9v-.9h-.9v-1.7h-.9v-1.7h-.9V293h-.9v-1.7h-.9v-1.7h-.9v.9h-.7v.9h-1.8v.9h-1.8v.9h-.9v.9h-1.8v.9h-1.8v.9h-1.8v.9h-1.8v.9h-2.7v.9h-1.8v.9h-2.7v.9h-2.9v-.9h-.9v-.9h-.9v-.9h-.9v-.9h-1.8v-.8h-1.6v-.9h-1.8v-.9h-2.7v-.9H564v-.9h-2.7v-.9h-1.8v-.9h-1.8v-.9h-2.6v-.7h-2.6v-.9H550v-.9h-2.7v-.9h-1.8v-.9h-.9v-.9h-.9v-.9h-.7v-.9h-.9v-.7h-.9v-1.7h-.9v-.9h-.9v-1.7h-.9v-3.5h-.9v-4.4h-.9v-4.4h-.9v-10.5h.9v-3.5h.9v-3.5h.9v-4.4h.9v-4.4h.9v-2.6h.9V234h.9v-2.6h.9v-2.6h.9v-2.6h-2.7v-.9h-.9v.9h-2.7v.9h-.9v.9h-1.8v.9h-1.8v.9h-2.7v.9h-8.3v.9h-2.7v.9h-4.3v-.9h-1.8v-.9h-2.7v-.9H509v-.9h-1.8v-.9h-1.8v-1h-.9v.9h-.9v.9h-.9v.9h-1.6v3.5h-.9v3.5h-.9v3.5h-.9v3.5h-.9v3.5h-.9v3.5h-.9v3.5h-.7v3.5h-.9v3.5h-.9v3.5h-.9v3.5h-.9v4.4h-.9v3.5h-.9v4.4h-.9v3.5h-.7v3.5h-.9v5.2h-.9v4.4h-.9v5.2h-.9v8.7h-.9v3.5h-.9v3.5h-.9v2.6h-.7v5.2h-.9v4.4h-.9v4.4h-.9v2.6h-.9v1.7h-.9v2.6h-.9v1.7h-.9v2.6h-.9v1.7h-.9v2.6h-.9v1.7h-.9v1.7h-.9v1.7h-.9v1.7h-.9v1.7h-.4v1.7h-.9v.9h-.9v1.7h-.9v1.7h-.9v1.7h-.9v1.7h-.9v.9h-.9v1.7h-.7v1.7h-.9v.9h-.9v1.7h-.9v.9h-.9v1.7h-.9v1.7h-.9v.9h-.9v1.7h-.7v.9h-.9v1.7h-.9v.9h-.9v1.7h-.9v.9h-.9v.9h-.9v.9h-.9v.9h-.7v.9h-.9v.9h-.9v1.7h-.9v.9h-.9v.9h-.9v.9h-.9v.9h-.9v.9h-.7v.9h-.9v.9h-.9v.9h-1.8v2.6h-.9v.9h-.9v.9h-.9v.9h-.7v.9h-1.8v.9h-1.8v.9h-.9v.9h-.9v.9h-.9v.9h-.7v49.8h-.9v7.9h-.9v7.9h-.9v.9h-.9v.9h-1.8v.9h-6.3v-.9h-.9v-.9h-.9v-.9h-.9v-.9h-.9v-.9h-.9v-1.7h-.9v-1.7h-.9V468h.9v-1.7h.9v-1.7h.9V462h.9v-44.5h-.9V414h-.9v-3.5h-.9v-.9h-.9v-.9h-.9v-.9h-.9v-.9h-.2v-.9h-.9v-.9h-2.7v-.9H399v-.9h-2.7v-.9h-2.7v-.9h-2.5v-.9h-1.8v-.9h-1.8v-.7h-1.8v-.9h-.7v-1.7h-.9v-1.7h-.9V393h-.9v-1.7h-.9v-14.8h-.9v-29.7h.9v-4.4h.9V338h.9v-5.2h.9v-3.5h.9v-3.5h.9v-3.5h.9v-3.5h.9v-3.5h.9v-3.5h.9v-3.5h.9v-4.4h.9v-2.6h.9v-2.6h.9v-3.5h.9v-2.6h.9V289h.9v-2.6h.9v-3.5h.9v-2.6h.9v-3.5h-1.8v-.9h-.9v.9H392v.9h-2.7v.9h-6.1v-.9h-2.7v-.9h-.9v-.9h-.9v-.9h-.7v-.9h-1.8v-.9h-1.8v-.9h-1.8v-.9h-4.3v-.9h-2.7v-.9h-1.8v-.9H362v-.7h-1.8v-.9h-.9v-.9h-1.8v-.9h-1.8v-.9h-1.8v-.9h-.9V261h-.9v.9h-2.9v.9h-.9v.9h-.9v.9h-1.8v1.7h-.9v.9h-.7v.9h-.9v1.7h-.9v.9h-.9v.9h-.9v.9h-2.7v.9h-.7v.9h-1.8v.9h-.9v.9h-.9v.9h-.9v2.6h-4.3v.9h-.9v.9h-.9v.9h-1.8v.9h-.9v.9h-.7v.9h-.9v.9h-.9v.9h-.9v.9h-.9v.9h-.9v.9h.9v.9h-.9v.9h-1.8v.9h-6.1v.9h-.9v3.5H307v-.9h-.9v.9h-2.7v.9h-6.3V296h-.9v-1.7h-.2v-1.7h-.9v-1.7h-2.7v-.9h-.9v.9h-4.3v-.9h-.9v-1h-.9v-.9h-.9v.9h-3.4v-.9h-.9v-1.7h-1.8v-.9h-1.8v-.9h-.9v-.9h-.7v-.9h-.9v-.8h-.9v-.9h-.9v-.9h-.9v-.9h-1.8v-.9H268v-16.6h.9v-3.5h.9v-2.6h.9v-3.5h.9v-.9h.9v-1.7h.9v-1.7h.9v-1.7h.9v-1.7h.9v-1.7h.9V241h.9v-.9h.9v-1.7h.9v-1.7h.9V235h.9v-1.7h.9v-1.7h.9v-1.7h-3.1v1.7h-.9v.9h-.9v.9h-.9v.9h-.9v1.7h-.9v.9h-.7v.9h-.9v.9h-.9v.9h-.9v.9h-.9v.9h-.9v.9h-.9v.9h-.9v.9h-.7v1.7h-.9v1.7h-.9v1.7h-.9v.9h-1.8v.9h-.9v.9h-.9v.9h-.7v4.4h-.9v.9h-1.8v-.9h-.9v-2.6h-7v-.9h-1.7v-.9h-1.8v-.9H241v-.9h-2.7v-.9h-1.8v-.9h-.9v1.7h-.9v.9h-.7v-.9h-.9v-.9h-.9v-.9h-6.1v-.9h-.9v-1.7h-.9v-21.8h.9V220h.9v-4.4h.9v-4.4h.9v-2.6h.9V206h.9v-2.6h.9v-2.6h.9v-2.6h.9v-3.5h.9v-2.6h.9v-2.6h.9v-2.6h.9v-2.6h.9v-2.6h-3.8v.9h-2.7v.9H227v.9h-.9v.9h-1.8v.9h-1.8v.9h-.9v.9H220v.9h-1.8v.9h-.9v.9h-.9v.9h-.9v.9h-.9v.9H213v.9h-1.8v.9h-1.8v.9h-2.7v.9h-2.5v.9h-3.6v.9h-5.4v-.9h-2.7v-.9h-.9v-.9h-.9v1.7h-.9v1.7h-.9v.9h-.9v1.7h-.9v.9h-.9v1.7h-.2v1.7h-.9v.9h-.9v1.7h-.9v.9h-.9v1.7h-.9v.9h-.9v1.7h-.9v1.7h-.7v.9h-.9v1.7h-.9v.9h-.9v.9h.9v-.9h.9v-.9h.9v-.9h.9v-.9h.9V215h.9v-.9h.9V213h.9v-.9h.9v1.7h-.9v1.7h-.9v1.7h-.9v1.7h-.9v.9h-.9v1.7h-.9v.9h-.9v1.7h-.9v1.7h-.9v.9h-.9v1.7h-.9v.9h-.9v1.7h-.9v.9h-.7v1.7h-.9v.9h-.9v1.7h-.9v.9h2.7v-.9h.9v-1.7h.9v-.5h.9v-1.7h.9v-.9h.9v-1.7h.9v-.9h.9V227h.9v-.9h.9v-.9h.9v-.9h.9v-.9h.9v-.9h.9v-.9h.9v-.9h.9v-.7h.9v1.7h-.9v1.7h-.9v.9h-.9v1.7h-.9v1.7h-.9v.9h-.9v1.7h-.9v1.7H179v1.7h-.9v1.7h-.9v1.7h-.9v1.7h-.9v.9h1.8v1.7h-.9v.9h-.9v1.7h-.9v.9h-.9v1.7h-.9v.9h-.7v1.7h-.9v.9h-.9v1.7h-.9v.9h-.9v1.7h-.9v.9h-.9v1.7h-.9v.9h-.7v1.7h-.9v.9h-.9v1.7h-.9v.9h-.9v1.7h-.9v.9h-.9v1.7h-.9v.9h-.7v1.7h-.9v.9h-.9v.9h-.9v1.7h-.9v.9h-.9v.9h-.9v.9h-.9v1.7h-.7v.9h-.9v.9h-.9v1.7h-.9v.9h-.9v.9h-.9v.9h-.9v1.7h-.9v.9h-.9v.9h-.9v1.7h-.9v.9h-.9v.9h-.9v.9h-.9v1.7h-.9v.9h-.9v.9h-.9v.9h-.9v-.4h-.9v-.9h-.9v.9h-.9v.9h-.9v.9h-.9v.9h-1.1v.9h-.9v-1.7h.9v-2.6h-2.7v.9h-1.8v.9h-.9v-1.7h.9v-1.7h.9v-2.6H124v1.7h-.9v.9h-.9v1.7h-.9v.9h-.9v.9h-.9v1.7h-.9v.9h-.9v.9h-.7v1.7h-.9v.9h-.9v.9h-.9v1.7h-.9v.9h-.9v1.7h-.9v.9h-.9v.9h-.7v1.7h-.9v.9h-.9v.9h-.9v1.7h-.9v.9h-.9v.9h-.9v1.7h-.9v.9h-.7v.9h-.9v1.7h-.9v1.7h-.9v.9h-.9v1.7h-.9v1.7h-.9v.9h-.9v1.7H96v1.7h-.9v.9h-.9v1.7h-.9v.9h-.9v1.7h-.9v1.7h-.9v.9h-.9v1.7H89v1.7h-.9v.9h-.9v1.7h-.9v1.7h-.9v.9h-.9v1.7h-.9v6.1h1.8v-.9h1.8v-.9h.9v-3.5h.9V350h.9v-1.7h.9v-1.7h.9v2.6h-.9v4.4h-.9v3.5H89v3.5h-.9v2.6h-.9v2.6h-.9v2.6h-.9v2.6h-.9v1.7h-.9v2.6h-.9v1.7h-.9v1.7h-.9v2.6H80v1.7h-.9v1.7h-.9v2.6h-.9v1.7h-.9v1.7H76v4.4h-.9v3.5h-.9v3.5h-.9v3.5h-.9v3.5h-.9v2.6h-.9v1.7h-.9v1.7H69v1.7h-.9v1.7h-.9v.9h-.9v.9h-.9v.9h-.9v-1.7h.9v-1.7h.9v-2.6h.9v-1.7h.9v-1.7h-.9v.9h-.9v1.7h-.9v.9h-.9v3.5h-.9v2.6h.9v.9h-.9v.9h-.9v.9H62v.9h-.9v.9h-.9v.9h-.9v.9h-.9v.9h-.9v.9h-.9v.9h-.9v.9H55v.9h-.9v.9h-1.8v1.7h-.9v.9h-.9v1.7h-.9v.9h-.9v1.7H48v.9h-.9v.9h-.9v-.9h-.9v-1.7h-.9v1.7h-.9v.9h-.9v.9h-.9v.9H41V441h-4.5v1.7h-.9v.9h-6.1v1.7h-.9v1.7h-.9v-.9h-.9v-.9h-.9v-.9h-1.8v-.9h-.9v.9h-.9v.9h-2.2v-3.5h.9v-4.4h-3.6v-2.6h-2.7v-3.5h-1.6v-.9h-1.8v-.9h-.9v-.9H7.9v-.9H7v-4.4h.9v-.9h.9v-1.7h.9v-.9h.9v-.9h.9v-1.7h.9v-.9h.9v-.9h.7v-1.7h.9v-.6h.9v-.9h.9v-1.7h.9v-.9h.9v-.9h.9v-1.7h.9v-.9h.7v-.9h.9v-1.7h.9v-.9h.9v-1.7h.9v-.9h.9v-.9h.9v-1.7h.9v-.9h.9v-1.7h.9v-.9h.9v-.9h.9v-1.7h.9v-.9h.9v-1.7h.9v-.9h.4v-.9h.9V385h.9v-.9h.9v-1.7h.9v-.9h.9v-.9h.9v-1.7h.9v-.9h.7v-1.7h1.8v-.9h.9v-.9h1.8v-.9h.9v-.9h.9V371h.7v-1.7h.9v-1.7h.9V365h.9v-1.7h.9v-1.7h.9v-1.7h.9v-2.6h.9v-1.7h.7v-1.7h.9v-1.7h.9v-2.6h.9V347h.9v-3h.9v-2.6h.9v-2.6h.9v-2.6h.7v-2.6h.9V331h.9v-2.6h.9v-3.5h.9v-2.6h.9v-3.5h.9V316h.9v-3.5h.7v-2.6h.9v-3.5h.9v-2.6h.9v-3.5h.9v-3.5h.9v-2.6h.9v-3.5h.9v-2.6h.7v-3.5h.9V282h.9v-3.5h.9V275h.9v-7.9h-.9v.9h-1.8v.9h-2.7v.9h-.9v.9h-.9v.9h-1.8v.9h-.9v.9H69v.9h-.9v.9h-1.8v.9h-.9v.9h-.9v.9H62v.9h-4.5v1.7h-.9v.9h-.9v.9H55v.9h-.9v.9h-.9v.9h-.9v.9h-5.2v-.9h-.9v-.9h-3.6v.9h-3.4v.9h-4.5v-.9h-3.4v-.9h-2.7v-.9H25V282h-2.7v-.9H21v-.9h-1.8v-.9h-1.8v-.9h-1.8v-.9H14v-.9h-.9v-.9h-.9v-.7h-.9v-.9h-.9v-.9h-.8v-.9h-.9v-.9h-.8v-.9H7v-.9h-.9V268h-.9v-1.7h-.8v-1.7h-.9v-1.7h-.9V261h-.9v-5.2H.9v-5.2H0v-21h.9v-5.2h.9v-5.2h.9V214h.9v-3.5h.9V207h.9v-3.5h.9v-4.4H7v-1.7h.9v-2.6h.9v-2.6h.9v-2.6h.9v-1.7h.9v-2.6h.9v-2.6h.9v-2.6h.7v-2.6h.9v-1.7h.9v-1.7h.9V172h.9v-1.7h.9v-1.7h.9v-1.7h.9V165h.7v-1.7h.9v-1.7h.9v-1.7h.9V158h.9v-2.6h.9v-.9h.9v-1.7h.9v-.9h.9v-1.7h.9v-.9h.9v-1.7h.9v-1.7h.9v-.9h.9v-1.7h.9v-.9h.4v-1.7h.9v-.9h.9v-1.7h.9v-.9h.9v-1.7h.9v-.9h.9v-.9h.9v-.9h.7v-.9h.9v-.9h.9v-1.7h.9v-.9h.9v-.9h.9v-.9h.9v-.9h.9v-.9h.7v-1.7h.9v-.9h.9v-.9h.9v-.9h.9v-.9h.9v-.9h.9V117H55v-.9h.9v-.9h.9v-.9h.9v-.9h.9v-.9h.9v-.9h.9v-.9h.9v-.7h.7v-.9h.9v-.9h.9v-.9h.9v-.9h.9v-.9h1.8v-.9H69v-.9h.9v-.7h1.8v-.9h.9v-.9h1.8v-.9H76v-.9h.9v-.9h1.8v-.9h.9v-.9h2.7V96H85v-.9h2.7v-.9h2.2v-.9h2.7v-.9h2.7v-.9h3.4v-.9h4.5v-.9h7.2v-.9h2.7v1.7h.9v1.7h.9v4.4h.9v4.4h.9v.9h1.8v.9h1.8v-.9h.9v-.9h.9v-.9h.9v-1.7h.9v-14h.9v-1.7h.9V81h.9v1.7h.9v1.7h.9v1.7h.9v.9h.9v1.7h.9v.9h.9v.9h.9v.9h.9v.9h.9V94h.9v.9h.9V96h1.8v2.6h.9v.9h.9v1.7h.9v1.7h.9v1.7h7.2v-.9h.9v3.5h.9v3.5h.9v-.7h.9v-.9h.9v-.9h.9v7.9h-.9v7.9H151v3.5h-.9v3.5h-.9v2.6h-.9v3.5h-.9v2.6h-.9v2.6h-.9v1.7h-.9v2.6h-.9v1.7h-.9v2.6h-.9v1.7h-.9v1.7h-.9v1.7h-.9v1.7h-.9v1.7h-.9v1.7h-.9v1.7h-.9v1.7h-.9v1.7h-.9v1.7h-.9v5.2h-.9v5.2h-.9v4.4h-.2v5.2h-.9v5.2h-.9v4.4h-.9v5.2h-.9v5.2h-.9v4.4h-.9v4.4h-.9v4.4h-.7v4.4h-.9v4.4h-.9v4.4h-.9v4.4h-.9v4.4h-.9v4.4h-.9v4.4h-.9v5.2h2.7v-.9h.9v-.9h.9v-.9h.9v-.9h.9v-1.7h.9v-1.7h.9v-1.7h.9v-.9h.9v-.9h.9v-1.7h1.8v-.9h1.8v-.9h.9v-.9h.9v-4.4h.9v.9h2.7v-.9h.9v-.9h.9v-.9h.9v-1.7h.9v-4.4h.9v-.9h1.8v-.9h.9v-.9h.9v-3.5h1.8v-.9h2.7v-.9h.9v-.9h.9v-1h.9v-1.7h.9v-.9h.9v-1.7h.9V214h2.7v-1h4.5v-2.6h1.8v-.9h.9v-.9h1.8v-.9h.9v-6.1h.9v-1.7h.9v-2.6h.9v-.9h.9v-5.2h-.9v-2.6h-.9v-3.5h-.9v-2.6h-.9v-20.1h.9v-3.5h.9v-3.5h.9V151h.9v-3.5h.9V144h.9v-4.4h.9V137h.9v-2.6h.9v-2.6h.9v-2.6h.9v-3.5h.9v-2.6h.9v-2.6h.9v-2.6h.9v-3.5h.9v-1.7h.9V111h.9v-2.6h.9v-1.7h.9V105h.9v-2.6h.9v-.9h.9v-1.7h.9v-.9h.9v-1.7h.9v-1.7h.9v-.9h.9v-1.7h.9v-1.7h.9v-.9h.9v-1.7h.9v-.9h.9V86h.9v-1.7h.9v-.9h.9v-1.7h.9V80h.9v-.9h.9v-.9h.9v-.9h.9V76h.9v-.9h.9v-.9h.9v-.9h.9v-.9h.9v-.9h.9v-.9h.9v-.9h3.6V69h1.8v-.9h.9v-.9h.9v-.9h.9v-.9h.9v-.9h.9v-.9h.9v-.9h.9V62h.9v-4.4h-4.8v-.9h-.9v-.9h-.9v.9h-2.7v.9H213v-.9h.9v-.9h1.8V55h.9v-.9h2.7v.9h2.7v.9h1.8V55h.9v-.9h.9v2.6h.9v1.7h.9V61h.9v1.7h.9v27.1h-.9v3.5H227v3.5h-.9v2.6h-.9v3.5h-.9v3.5h-.9v2.6h-.9v3.5h-.9v3.5h-.9v2.6h-.7v3.5h-.9v2.6h-.9v2.6h-.9v2.6h-.9v2.6h-.9v2.6h-.9v1.7h-.9v1.7h-.7v1.7h-.9v1.7h-.9v1.7h-.9v1.7h2.7v-.9h.9v-.9h.9v-.9h.9v-.9h.9V140h.9v-1.7h.9v-1.7h.9v-1.7h.9v-1.7h.9V131h.9v-.9h.9v-.9h.9v-.9h.9v-.9h.9v-1.7h.9v3.5h-.9v2.6h-.9v6.1h.9v.9h2.7v-.9h.9v-.9h.9v-1.7h.9v-.9h.9v-1.7h1.8v-.9h.9v-.8h.9v-.9h.9v-.9h.9v-.9h.9v-.9h.9v1.7h-.9v2.6h1.8v-.7h.9v-.9h1.8v-.9h.9v-.9h1.7v-.9h.9v-.9h.9v-.9h1.8v-.9h.9v-.7h1.7v-.9h.9v-.9h1.7v-.9h.9v-.9h.9v-.9h1.7v-.9h.9v-.9h1.8v-.7h.9v-.9h1.8v-.9h.9v-.9h.9v-.9h1.8v-.9h.9v-.9h1.8v-.9h.9v-.7h1.8v-.9h.9v-.9h.9v-.9h3.6v-.9h.9v-.9h.9v-.9h.9v-.9h2.7v-.7h.9v-4.4h.9V96H282v-.9h2.7v.9h1.8v.9h2.7v.9h2.7v1.7h-.9v.9h-.9v2.6h.9v.9h.9v.9h.9v.9h2.7v2.6h6.3v-.9h1.8v1.7h-.9v5.2h.9v.9h.9v.9h1.8v1.7h.9v3.5h-.9v1.7h-.9v1.7h-.9v1.7h-.9v.9h-.9v1.7h-.9v1.7h-.9v1.7h-.9v1.7h-.9v.9h-.9v1.7h-.9v1.7H296v1.7h-.9v1.7h-.9v1.7h-.9v1.7h-.9v1.7h-.9v1.7h-.9v1.7h-.9v2.6h-.7v1.7h-.9v1.7h-.9v1.7h-.9v1.7h-.9v1.7h-.9v1.7h-.9v1.7h-.9v1.7h-.7v1.7h-.9v1.7h-.9v.9h-.9v1.7h-.9v.9h-.9v1.7h-.9v.9h-.9v1.7h-.7v.9h-.9v1.7h-.9v.9h-.9v2.6h-.9v2.6h-.9v1.7h-.9v3.5h-.9v3.5h-.7v3.5h-.9v3.5h-.9v1.7h-.9v1.7h-.9v1.7h-.9v.9h-.9v7.9h.9v.9h.9v-1.7h.9v1.7h.9v.9h.9v2.6h-.9v1.7h-.9v1.7h.9v.9h4.5v-.9h1.8v-.9h1.8v-.9h2.7v-.9h2.7v-.9h2.7v-.9h2.7v3.5h1.8v-.9h.9v-.9h.9v-1.7h.9v.7h.9v-1.7h.9v-.9h.9v-.9h.9v-1.7h.9v-.9h.9v-1.7h.9v-.9h.9v-.9h.9v-1.7h.9v-.9h.9V206h.9v-.9h.9v-.9h.9v-1.7h.9v-.9h.9v-1.7h.9v-.9h.9v-.9h.9v-1.7h.9v-.9h.9v-1.7h.9v-.9h.9v-1.7h.9v-.9h.9v-.9h.9v-.9h.9v-.9h.9V186h.9v-.9h.9v-.9h.9v-.9h.9v-.9h.9v-1.7h.9v-.9h.9v-.8h.9v-.9h.9v-.9h.9v-1.7h.9v-.9h.9v-.9h.9v-.9h.9v-.8h.9v-1.7h.9v-.9h.9v-.9h.9v-.9h.9v-.9h.9V165h.9v-.9h.9v-.9h.9v-.9h.9v-.9h.9v-1.7h.9v-.9h.9v-.8h.9v-.9h.9v-.9h.9v-.9h.9v-.9h.9v-.9h.9v-.9h.9v-.9h.9v-.7h.9v-.9h.9v-.9h.9v-.9h.9v-.9h.9v-.9h.9v-.9h.9v-.9h.9v-.9h.9v-.9h.9v-.9h.9v-.9h.9v-.9h.9v-.9h.9v-.9h.9v-.9h.9v-.9h.9v-.9h.9v-.9h.9v-.9h.9v-.9h.9v-.9h.9v-.9h.9v-.2h.9v-.9h1.8v-.9h.9v-.9h.9v-.9h.9v-.9h.9v-.9h1.8v-.9h.9v-.7h.9v-.9h.9v-.9h.9v-.9h1.8v-.9h.9v-.9h.9v-.9h.9v-.9h.9v-.7h1.8v-.9h.9v-.9h.9v-.9h.9v-.9h.9v-.9h1.8v-.9h.9v-.9h.9v-.7h.9v-.9h.9v-.9h1.8v-.9h.9v-.9h.9v-.9h.9v-.9h.9v1.7h-.9v3.5h.9v-.9h1.8v-.9h.9v-.9h.9v-.9h.9v-.9h1.8v-.9h.9v-.9h.9v.9h1.8v.9h.9v.9H406v.9h-.9v.9h-.9v.9h-1.8v.9h-.9v.9h-.9v.9h-.9v.9h-1.6v1.7h-.9v.9h-.9v.9h-.9v.9h-.9v1.7h-.9v1.7h-.9v1.7h-.7v.9h-.9v.9h-.9v.9h-.9v2.6h.9v1.7h-.9v5.2h-.9v2.6h-.9v2.6h-.9v2.6h-.9v1.7h-.7v.9h-.9v.9h-.9v.9h-.9v.9h-.9v.9h-.9v.9h-.9v.9h-.9v.9h-.7v.9h-.9v.9h-.9v.9h-.9v.9h-.9v.9h-.9v.9h-.9v1.7h-.9v.9h-.7v.9h-.9v.9h-.9v.9h-.9v.9h-.9v.9h-.9v.9h-.9v.9h-.9v.9h-.9v.9h-.9v.9h-.9v.9h-.9v.9h-.9v.9h-.9v1.7h-.9v.9h-.9v.9h-.9v.9h-.9v.9h-.9v.9h-.9v.9h-.9v1.7h-.9v.9h-.9v.9h-.2v.9h-.9v.9h-.9v.9h-.9v.9h-.9v.9h-.9v1.7h-.9v.9h-.9v.9h-.7v1.7h-.9v.9h-.9v.9h-.9v1.7h-.9v.9h-.9v.9h-.9v1.7h-.9v.9h-.7v.9h-.9v.9h-.9v1.7h-.9v.9h-.9v1.7h-.9v.9h-.9v1.7h-.9v.9h-.7v1.7h-.9v.9h-.9v1.7h-.9v.9h-.9v1.7h-.9v.9h-.9v2.6h-.9v1.7h-.7v1.7h-.9v1.7h-.9v1.7h-.9v1.7h-.9v1.7h-.9v1.7h-.9v1.7h-.9v1.7h-.7v1.7h-.9v.9h-.9v.9h-.9v.9h-.9v.9h-.9v4.4h-.9v3.5h-.9v5.2h.9v.9h.9v-.9h.9v-.9h.9v-.9h.9v-.9h.9v-.9h.9v-.9h.9v-1.7h.9v-.9h.9v-.9h.9v-.9h.9v-.9h.9v-.9h.9v-1.7h.9v-.9h.9v-.9h.9v-1.7h.9v-.9h.9v-.9h.9v-1.7h.9v-.9h.9v-.9h.9v-1.7h.9v-.9h.9v-.9h.9v-1.7h.9v-.9h.9v-.9h.9v-.9h.9v-.9h.9v-.9h.9v-.9h.9V219h.9v-.9h.9v-.9h.9v-.9h.9v-.9h.9v-.9h.9V213h.9v-.9h.9v-.9h.9v-1.7h.9v-.9h.9v-.9h.9V206h.9v-.9h.9v-.9h.9v-1.7h.9v-.9h.9v-.9h.9V199h2.7v-.9h1.8v-.9h.9v-.9h.9v-.9h.9v-.9h.9v-.9h.9v-.9h.9V191h.9v-.9h.9v-1.7h.9v-.9h.9v-6.1h1.8v8.7h.9v-.9h.9v-.9h.9v-1.7h.9V184h-.9v-1.7h.9v-.9h.9v-.9h.9v-.9h.9v-1.7h.9v-5.2h.9v-5.2h.9v-.9h.9v-.9h.9v-.7h.9v-1.7h.9v-.9h.9v-1.7h.9V159h.9v-1.7h.9v-1.7h.9v-1.7h.9v-1.7h.9v-1.7h.9v-1.7h.9v-1.7h.9v-1.7h.9v-1.7h.9V142h.9v-1.7h.9v-1.7h.9V136h.9v-.9h.9v-.9h.9v-.9h.9v-.9h.9V131h.9v-.9h.9v-.9h.9v-.9h.9v-.9h.9v-.9h.9v-.9h.9v-.9h2.7v-.7h2.7v-.9h.9v6.1h.9v.9h.9v.9h.9v15.7h-.9v2.6h-.9v2.6h-.9v17.5h-.9v2.6h-.9v2.6h-.9v2.6h-.9v2.6h-.9v2.6H406v2.6h-.9v2.6h-.9v2.6h-.9v2.6h-.9v2.6h-.9v2.6h-.9v3.5h-.9v2.6h-.7v3.5h-.9v2.6h-.9v2.6h-.9v3.5h-.9v2.6h-.9v2.6h-.9v3.5h-.9v2.6h-.7v2.6h1.8v-.9h1.8v-.9h2.7v-.9h2.7v-.5h1.8v-.9h.9v-.9h.9v-.9h.9v-.9h.9v-.9h.9v-.9h.9v-.9h.9v-.7h.9v-.9h.9v-.9h.9v-.9h.9v-.9h.9v-.9h.9v-.9h.9v-.9h.9v-.7h.9v-.9h.9v-.9h.9v-.9h.9v-.9h.9v-.9h.9v-.9h.9v-.9h.9V205h.9v-.9h.9v-.9h.9v-.9h.9v-.9h.9v-.9h.9v-.9h.9v-.9h.9v-.9h.9v-.9h.9v-.9h.9v-.9h.9v-.9h.9v-.9h.9v-.9h.9v-1.7h.9v-.9h.9v-.9h.9v-.9h.9v-.9h.9v-.9h.9v-.2h.9v-.9h.9v-1.7h.9v-.9h.9v-1.7h.9v-.9h.9v-1.7h.9v-.9h.9v-1.7h.9v-.9h.9V173h.9v-1.7h.9v-1.7h.9v-1.7h.9V165h.9v-2.6h.9v-3.5h.9v-2.6h.9v-2.6h.9V151h.9v-2.6h.9v-2.6h.9v-3.5h.9v-2.6h.9v-2.6h.9v-2.6h.9v-2.6h.9v-2.6h.9v-2.6h.9v-.9h.9V124h.9v-1.7h.9v-1.7h.9v-1.7h.9V117h.9v-.9h.9v-1.7h.9v-.9h.9v-1.7h.9v-.9h.9v-1.7h.9v-1.7h.9v-.9h.9v-.9h.9V104h.9v-1h.9v-.9h.9v-1.7h.9v-.9h.9v-.9h.9v-1.7h.9V96h.9v-.9h.9v-1.7h.9v-.9h.9v-.9h.9v-1.7h1.8V89h.9v-.9h.9v-.9h.9v-1.7h.9v-2.6h.9v-1.7h.9v-1.7h1.8v-.9h.9v-.9h.9v-.9h.9v.9h.9v.9h.9v2.6h1.8v-.9h.9v-.9h.9v-.9h.9v-.9h.9v-.9h.9V76h.9v-.9h.9v-.9h.9v-.9h.9v-.9h.9v-.9h1.8v-.9h.9v-.9h.9V69h.9v-.9h.9v-.9h.9v-.9h.9v-.9h.9v-.9h.9v-.9h.9v-.9h.9V62h3.6v-.9h.9v-1.7h-.9v-.9h.9v-.9h.9v-.9h1.8v-.9h.9V55h1.8v-.9h.9v-.9h.9v.9h.9v1.7h-.9V62h.9v3.5h-.9v6.1h.9v.9h.9v.9h2.7v.9h1.8v.9h1.8v3.5h.9v7h1.8v-.9h.9v-.9h.9v4.4h-.9v4.4h-.9v5.2h-.9v5.2h-.9v2.6H543v1.7h-.9v1.7h-.9v1.7h-.9v1.7h-.9v1.7h-.9v1.7h-.9v2.6h-.9v1.7h-.9v1.7h-.9v1.7h-.9v1.7h-.9v1.7h-.9v1.7h-.9v1.7h-.9v.9h-.9v1.7h-.9v.9h-.9v1.7h-.9v.9h-.9v1.7h-.9v.9h-.9v.9h-.9v1.7h-.2v.9h-.9v1.7h-.9v.9h-.9v1.7h-.9v.9h-.9v.9h-.9v1.7h-.9v.9h-.7v1.7h-.9v.9h-.9v1.7h-.9v.9h-.9v4.4h.9v3.5h.9v3.5h.9v3.5h.9v2.6h.9v19.2h.9v.9h1.8v4.4h.9v.9h5.4v-.9h9v-.9h1.8v-.9h1.8v-.9h1.8v-.9h1.8v-.9h1.8v-.9h1.8v-.9h.9v-.9h.9v-.9h1.8v-.9h.9v-.9h.9v-.9h1.7v-.9h.9v-.9h.9v.1h2.6v-.9h1.7v-.9h.9v-.9h.9v-.9h.9v-1.7h.9v-.9h.9v-1.7h.9v-1.7h.9v-1.7h.9V173h.9v-1.7h.9v-1.7h.9v-1.7h.9v-1.7h.9v-1.7h.9v-1.7h.9v-2.6h.9V158h.9v-1.7h.9v-2.6h.9V152h.9v-1.7h.9v-2.6h.9V146h.9v-1.7h.9v-2.6h.9V140h.9v-2.6h.9v-.9h.9v-1.7h.9v-1.7h.9V131h.9v-1.7h.9v-1.7h3.6v-.9h.9v-.9h.9v-.9h.9v-.9h1.8v-.9h.9v-.9h2.7v-.9h1.8v-.9h1.8v-.9h1.8v-.9h.9v-.9h.9v-.7h.9v-.9h.9v-.9h.9v-.9h.9v-.9h1.8v-.9h2.7v3.5h.9v-.9h.9v-.9h.9v-.9h.9v-.9h.9v-.9h.9v-.9h.9v-.6h.9v-.9h.9v1.7h.9v.9h.9v3.5h.9v7h.9v-.9h1.8v-.9h1.8v-.9h1.8v1.7h-.9v9.6h-.9v1.7h-4v1.7h-.9v.9h-.9v1.7h-.9v1.7h-.9v.9h-.9v1.7h-.9v1.7h-.9v.9h-.7v1.7h-.9v.9h-.9v2.6h-.9v1.7h-.9v2.6h-.9v1.7h-.9v1.7h-.9v2.6h-.7v1.7h-.9v1.7h-.9v2.6h-.9v1.7h-.9v2.6h-.9v1.7h-.9v2.6h-.9v1.7h-.7v2.6h-.9v1.7h-.9v2.6h-.9v1.7h-.9v2.6h-.9v1.7h-.9v1.7h-.9v2.6h-.7v1.7h-.9v1.7h-.9v3.5h-.9v2.6h-.9v2.6h-.9v2.6h-.9v2.6h-.9v2.6h-.9v2.6h-.9v2.6h-.9v2.6h-.9v2.6h-.9v2.6h-.9v3.5h-.9v2.6h-.9v3.5h-.9v2.6h-.9v2.6h-.9v5.2h-.9v5.2h-.9v5.2h3.6v-.9h.9v-.9h.9v-.9h.9v-.9h.9v-.9h.9v-.9h.9v-.9h.9v-.9h1.8v-.9h.9v-.9h.9v-.9h.9v-.9h.9v-.9h.9v-.9h.9v-.9h.9v-.9h.9v-.9h1.8v-.9h.9v1.2h.9v-.9h.9v-.9h.9v-.9h.9v-.9h.9v-.9h.9v-.9h.9v-.9h1.8v-.7h.9v-.9h.9v-.9h.9v-.9h.9v-.9h.9v-.9h.9v-.9h.9v-.9h.9v-.7h1.8v-.9h.9v-.9h.9v-.9h.9v-.9h.9v-.9h.9v-.9h.9v-.9h.9v-.7h.9v-.9h1.8v-.9h.9v-.9h.9v-.9h.9v-.9h.9v-.9h.9v-.9h.9v-.7h.9v-.9h.9v-.9h.9v-.9h.9v-.9h.9v-.9h.9v-.9h.9v-.9h.9v-.7h1.8v-.9h.9v-.9h.9v-.9h.9v-.9h.9v-.9h.9v-.9h.9v-.9h.9v-.9h.9v-.9h.9v-.9h.9v-.9h.9v-.9h.9v-.9h.9v-.9h.9v-.9h1.8v-.9h.9v-.9h.9v-.9h.9v-.9h.9v-.9h.9v-.9h.9v-.9h.9v-.2h.9v-.9h.9v-.9h.9v-.9h.9v-.9h.9v-.9h.9v-.9h.9v-.9h1.8v-.7h.9v-.9h.9v-.9h.9v-.9h.9v-.9h.9v-.9h.9v-.9h.9v-.9h.9v-.7h.9v-.9h.9v-.9h1.8v-.9h.9v-.9h.9v-.9h.9v-.9h.9v-.9h.9v-.7h.9v-.9h.9v-.9h.9v-.9h.9v-.9h.9v-.9h1.8v-.9h.9v-.9h.9v-.7h.9v-.9h.9v-.9h1.8v-.9h.9v-.9h.9v-.9h.9v-.9h.9v-.9h1.8v-.7h.9v-.9h.9v-.9h.9v-.9h.9v-.9h1.8v-.9h.9v-.9h.9v-.9h.9v-.9h.9v-.9h.9v-.9h1.8v-.9h.9v-.9h1.8v-.9h.9v-.9h.9v-.9h1.8v-.9h.9v-.9h.9v-.9h1.8v-.9h.9v-.9h1.8v-.9h.9v-.9h.9v-.2h1.8v-.9h.9v-.9h.9v-.9h1.7v-.9h.9v-.9h.9v-.9h1.7v-.9h.9v-.7h1.8v-.9h.9v-.9h1.7v-.9h.9v-.9h1.8v-.9h.9v-.9h.9v-.9h1.7v-.7h.9v-.9h1.8v-.9h.9v-.9h1.8v-.9h.9v-.9h1.8v-.9h.9v-.9h.9v-.7h2.7v-.9h1.8v-.9h1.8v-.9h1.8v-.9h3.6v-.9h6.3v-.9h.9v-.9h4.5v-.7h.9v-.9h.9v-1.7h1.8v-.9h.9v.9h1.8v1.7h-.9v.9h-.9v.9h-.9v.9h4.5v-.9h.9v-.9h.9v-.9h3.6v-.9h.9v1.7h.9v.9h.9v.9h.9v6.1h.9v6.1h-.9v2.6h-.9v9.6h-.9v1.7h-.9v2.6H791v1.7h-.9v2.6h-.9v1.7h-.9v1.7h-.9v2.6h-.9v1.7h-.9v2.6h-.9v1.7h-.7v1.7h-.9v2.6h-.9v1.7h-.9v2.6h-.9v1.7h-.9v1.7h-.9v2.6h-.9v1.7h-.7v1.7h-.9v1.7h-.9v2.6h-.9v1.7h-.9v1.7h-.9v1.7h-.9v1.7h-.9v2.6h-.7v1.7h-.9v1.7h-.9v1.7h-.9v2.6h-.9v1.7h-.9v1.7h-.9v1.7h-.9v1.7h-.7v2.6h-.9v2.6h-.9v2.6h-.9v1.7h-.9v9.6h-.9v2.6h-.9v2.6h-.9v2.6h-.9v2.6h-.9v2.6h-.9v2.6h-.9v2.6h-.9v2.6h-.9v2.6h-.9v1.7h-.9v3.5h-.9v3.5h-.9v3.5h-.9v2.6h-.9v7h-.9v7.9h.9v.9h.9v.9h.9v.9h5.4v-.9h2.7v-.9h.9v-.9h.9v-.9h.9v.8h.9v-.9h.9v-.9h.9v-.9h.9v-1.7h.9v-1.7h1.8v-.9h1.8v-.9h.9v-.9h.9v-.9h.9v-.9h.9v-.9h.9v-.9h.9v-.9h.9V253h1.8v-.9h1.8v-.9h.9v-.9h.9v-.9h.9v-.9h.9v-.9h.9v-.9h.9V245h.9v-1.7h.9v-.9h.9v-.9h.9v-.5h.9v-.9h4.5v-.9h3.6v-.9h.9v-.9h.9v-.9h.9v-.9h1.8v-.9h.9v-.7h1.8v-.9h.9v-.9h.9v10.5h-.9v2.6h-.9v2.6h-.9v2.6h-.9v4.4h.9v.9h1.8v4.4h-.9v3.5h.9v.9h2.7-.4z" fill-rule="evenodd" clip-rule="evenodd"/></svg>
